<svg xmlns="http://www.w3.org/2000/svg" width="1024" height="1024" viewBox="0 0 1024 1024" >
<g>
<path d="M 327.00 613.11 L 327.00 333.00 L 241.50 333.00 L 156.00 333.00 L 156.00 271.00 L 156.00 209.00 L 388.00 209.00 L 620.00 209.00 L 620.00 270.99 L 620.00 332.99 L 537.99 333.24 L 455.98 333.50 L 456.00 574.69 L 456.01 815.89 L 406.25 845.80 C378.89,862.25 350.44,879.42 343.03,883.97 C335.63,888.51 328.99,892.45 328.28,892.72 C327.24,893.12 327.00,840.55 327.00,613.11 ZM 475.00 584.61 L 475.00 363.00 L 539.00 363.00 L 603.00 363.00 L 603.00 439.00 L 603.00 515.00 L 647.78 515.00 C672.82,515.00 696.21,514.54 700.85,513.96 C738.83,509.20 767.84,483.40 778.20,445.18 C780.96,434.97 781.22,411.89 778.69,401.67 C770.51,368.72 746.22,344.09 713.82,335.90 C706.56,334.06 701.59,333.73 674.75,333.28 L 644.00 332.76 L 644.00 270.74 L 644.00 208.72 L 681.75 209.30 C722.87,209.94 733.63,210.94 753.36,215.92 C787.87,224.64 816.11,240.01 840.97,263.61 C877.63,298.41 900.61,345.30 907.06,398.50 C909.78,420.94 908.06,451.88 902.82,474.50 C887.30,541.49 837.08,595.90 772.77,615.40 C743.09,624.39 725.56,626.00 657.04,626.00 L 603.02 626.00 L 602.76 677.58 L 602.50 729.16 L 569.00 749.34 C493.41,794.88 479.53,803.26 477.32,804.71 L 475.00 806.23 L 475.00 584.61 Z" fill="currentColor"/>
</g>
</svg>